# xmcd
#
# Track frame offsets:
#	150
#	15730
#	32272
#	50330
#	65875
#	80442
#	96155
#	114312
#	135052
#	148122
#	158327
#	176667
#
# Disc length: 2547 seconds
#
# Revision: 0
# Processed by: cddbd v1.5.2PL0 Copyright (c) Steve Scherf et al.
# Submitted via: dBpowerAMP V4.0
#
DISCID=8e09f10c
DTITLE=Eemon McCann - Touch Wood
DYEAR=1900
DGENRE=
TTITLE0=Running away with my heart
TTITLE1=Learning the blues
TTITLE2=She wants to be wanted again
TTITLE3=Amen kind of love
TTITLE4=Bad moon rising
TTITLE5=Exactly what I meant
TTITLE6=Have I told you lately that I love you
TTITLE7=Touch wood
TTITLE8=When you are old
TTITLE9=Do I really have to tell you that I love you
TTITLE10=My home, Ireland
TTITLE11=After you've gone
EXTD=
EXTT0=
EXTT1=
EXTT2=
EXTT3=
EXTT4=
EXTT5=
EXTT6=
EXTT7=
EXTT8=
EXTT9=
EXTT10=
EXTT11=
PLAYORDER=
